<?xml version="1.0" encoding="utf-8"?>
<!-- Generator: Adobe Illustrator 27.0.0, SVG Export Plug-In . SVG Version: 6.00 Build 0)  -->
<svg version="1.1" id="Layer_1" xmlns="http://www.w3.org/2000/svg" xmlns:xlink="http://www.w3.org/1999/xlink" x="0px" y="0px"
	 viewBox="0 0 250 45" style="enable-background:new 0 0 250 45;" xml:space="preserve">
<style type="text/css">
	.st0{display:none;}
	.st1{display:none;fill-rule:evenodd;clip-rule:evenodd;fill:#BC1E1E;stroke:#FFFFFF;stroke-width:6.100000e-02;}
</style>
<path class="st0" d="M0,0h250v45H0V0z"/>
<path class="st1" d="M46.7,22.4h-7.8v3.8c0,0.8,0,1.6,0.1,2.4c0,0.2,0.1,0.3,0.1,0.5c0.1,0.1,0.2,0.3,0.3,0.4
	c0.4,0.2,0.9,0.3,1.4,0.3h0.4v0.5h-6.7v-0.5h0.4c0.5,0,0.9,0,1.3-0.2c0.1-0.1,0.2-0.2,0.3-0.3c0.1-0.1,0.1-0.3,0.2-0.4
	c0.1-0.8,0.1-1.7,0.1-2.5v-7.6c0-0.8,0-1.6-0.1-2.4c0-0.1-0.1-0.3-0.1-0.4c-0.1-0.1-0.2-0.2-0.3-0.3c-0.5-0.2-1-0.2-1.5-0.2h-0.3
	v-0.5h6.7v0.5h-0.3c-0.5,0-1,0-1.4,0.2c-0.1,0.1-0.2,0.2-0.3,0.3C39.1,15.8,39,15.9,39,16c-0.1,0.8-0.1,1.6-0.1,2.4v3.1h7.8v-3.1
	c0-0.8,0-1.6-0.1-2.4c0-0.1-0.1-0.3-0.1-0.4c-0.1-0.1-0.2-0.2-0.3-0.3c-0.5-0.2-1-0.2-1.5-0.2h-0.4v-0.5h6.8v0.5h-0.2
	c-0.5,0-1,0-1.4,0.2c-0.1,0.1-0.2,0.2-0.3,0.3C49.1,15.8,49,15.9,49,16c-0.1,0.8-0.1,1.6-0.1,2.4v7.6c0,1.2,0,2,0.1,2.4
	c0,0.2,0.1,0.3,0.1,0.5c0.1,0.1,0.2,0.3,0.3,0.4c0.4,0.2,0.9,0.3,1.4,0.3h0.3v0.5h-6.8v-0.5h0.5c0.5,0,0.9,0,1.3-0.2
	c0.2-0.2,0.4-0.5,0.5-0.8c0.1-0.8,0.1-1.7,0.1-2.5L46.7,22.4L46.7,22.4z M55.1,22.3c0-1.1,0.1-2.2,0.5-3.2c0.4-1,1-1.9,1.8-2.6
	c1.6-1.5,3.7-2.3,5.8-2.2c2.2-0.1,4.3,0.7,5.9,2.2c0.8,0.7,1.4,1.7,1.8,2.7c0.4,1,0.6,2.1,0.5,3.2c0,1.1-0.1,2.2-0.5,3.2
	c-0.4,1-1,1.9-1.7,2.7c-1.6,1.4-3.7,2.2-5.9,2.2c-2.2,0-4.3-0.8-5.9-2.2c-0.8-0.8-1.4-1.7-1.8-2.7C55.2,24.5,55.1,23.4,55.1,22.3z
	 M57.6,22.4c0,2.5,0.5,4.4,1.4,5.6c1,1.3,2.4,1.9,4.3,1.9c0.8,0,1.5-0.1,2.2-0.4c0.7-0.3,1.3-0.8,1.8-1.4c1-1.2,1.5-3.1,1.5-5.6
	c0-2.4-0.5-4.3-1.5-5.5c-0.5-0.6-1.1-1.2-1.9-1.5c-0.7-0.3-1.5-0.5-2.3-0.4c-0.8,0-1.6,0.1-2.3,0.4c-0.7,0.3-1.4,0.8-1.9,1.5
	C58.1,18.1,57.6,19.9,57.6,22.4z M79.8,22.8v3.3c0,0.8,0,1.6,0.1,2.4c0,0.2,0.1,0.3,0.1,0.5c0.1,0.1,0.2,0.3,0.3,0.4
	c0.4,0.2,0.9,0.3,1.4,0.3h0.5v0.5h-6.9v-0.5h0.4c0.5,0,0.9,0,1.3-0.2c0.1-0.1,0.2-0.2,0.3-0.3c0.1-0.1,0.1-0.3,0.2-0.4
	c0.1-0.8,0.1-1.7,0.1-2.5v-7.6c0-0.8,0-1.6-0.1-2.4c0-0.1-0.1-0.3-0.1-0.4c-0.1-0.1-0.2-0.2-0.3-0.3c-0.5-0.2-1-0.2-1.5-0.2h-0.3
	v-0.5l1.9-0.1c1.5,0,2.7-0.1,3.5-0.1c1.2,0,2.4,0.1,3.6,0.4c0.8,0.2,1.5,0.7,2.1,1.4c0.5,0.7,0.8,1.5,0.8,2.4c0,0.8-0.2,1.6-0.6,2.2
	c-0.4,0.6-0.9,1.2-1.6,1.5c-0.7,0.3-1.9,0.5-3.6,0.5L79.8,22.8L79.8,22.8z M79.8,22.3h1.1c0.7,0,1.4-0.1,2.1-0.3
	c0.6-0.2,1-0.6,1.3-1.1c0.4-0.6,0.6-1.4,0.5-2.1c0-0.5,0-1-0.2-1.5c-0.2-0.5-0.4-0.9-0.7-1.3c-0.6-0.6-1.6-0.9-3-0.9
	c-0.5,0-0.9,0-1.2,0.1C79.8,15.1,79.8,22.3,79.8,22.3z M95,22.8v3.3c0,0.8,0,1.6,0.1,2.4c0,0.2,0.1,0.3,0.2,0.5
	c0.1,0.1,0.2,0.3,0.3,0.4c0.4,0.2,0.9,0.3,1.4,0.3h0.5v0.5h-6.9v-0.5H91c0.5,0,0.9,0,1.3-0.2c0.1-0.1,0.2-0.2,0.3-0.3
	c0.1-0.1,0.1-0.3,0.2-0.4c0.1-0.8,0.1-1.7,0.1-2.5v-7.6c0-0.8,0-1.6-0.1-2.4c0-0.1-0.1-0.3-0.1-0.4c-0.1-0.1-0.2-0.2-0.3-0.3
	c-0.5-0.2-1-0.2-1.5-0.2h-0.3v-0.5l1.9-0.1c1.5,0,2.7-0.1,3.5-0.1c1.2,0,2.4,0.1,3.6,0.4c0.8,0.2,1.5,0.7,2.1,1.4
	c0.6,0.7,0.8,1.5,0.8,2.4c0,0.8-0.2,1.6-0.6,2.2c-0.4,0.6-0.9,1.2-1.6,1.5c-0.7,0.3-1.9,0.5-3.6,0.5L95,22.8L95,22.8z M95,22.3h1.1
	c0.7,0,1.4-0.1,2.1-0.3c0.6-0.2,1-0.6,1.3-1.1c0.4-0.6,0.6-1.4,0.5-2.1c0-1.3-0.3-2.2-0.9-2.8c-0.6-0.6-1.6-0.9-2.9-0.9
	c-0.5,0-0.9,0-1.2,0.1C95,15.1,95,22.3,95,22.3z M118,25.3h0.5l-0.3,4.8h-12.4v-0.5h0.3c0.5,0.1,1,0,1.4-0.3
	c0.2-0.2,0.4-0.5,0.4-0.8c0.1-0.8,0.1-1.6,0.1-2.4v-7.6c0-0.8,0-1.6-0.1-2.3c0-0.3-0.2-0.6-0.4-0.8c-0.4-0.2-0.9-0.2-1.4-0.2v-0.5
	h10.7l0.3,3.9h-0.5c-0.1-0.8-0.4-1.6-0.9-2.3c-0.3-0.4-0.7-0.7-1.2-0.9c-0.8-0.1-1.5-0.2-2.3-0.2h-2.1v6.5h1.6c0.5,0,1,0,1.5-0.2
	c0.3-0.1,0.5-0.3,0.6-0.6c0.1-0.5,0.2-1,0.2-1.5h0.5v5.3h-0.5c0-0.6,0-1.2-0.2-1.7c-0.1-0.1-0.1-0.3-0.2-0.4
	c-0.1-0.1-0.2-0.2-0.4-0.2c-0.4-0.1-0.9-0.2-1.3-0.1h-1.7v3.7c0,1.8,0.1,2.9,0.3,3.3c0.2,0.3,0.8,0.5,1.9,0.5h1.1
	c0.7,0,1.3-0.1,1.9-0.3c0.6-0.3,1.1-0.7,1.4-1.3C117.4,27.2,117.8,26.3,118,25.3L118,25.3z M138.2,30.2h-4c-0.7-0.5-1.8-1.9-3.3-4.1
	c-0.5-0.7-1-1.4-1.5-2c-0.3-0.4-0.7-0.8-1.1-1.2c-0.3-0.2-0.6-0.2-0.9-0.2h-0.6v3.4c0,1.2,0,2,0.1,2.4c0,0.3,0.2,0.6,0.4,0.8
	c0.4,0.2,0.9,0.3,1.4,0.3h0.7v0.5h-7.2v-0.5h0.5c0.4,0,0.9,0,1.3-0.2c0.1-0.1,0.2-0.2,0.3-0.3c0.1-0.1,0.1-0.3,0.2-0.4
	c0.1-0.8,0.1-1.7,0.1-2.5v-7.6c0-0.8,0-1.6-0.1-2.4c0-0.1-0.1-0.3-0.1-0.4c-0.1-0.1-0.2-0.2-0.3-0.3c-0.5-0.2-1-0.2-1.5-0.2h-0.2
	v-0.5l2.2-0.1c1.4-0.1,2.6-0.1,3.4-0.1c1.2,0,2.3,0.1,3.5,0.4c0.8,0.2,1.6,0.7,2.2,1.4c0.6,0.6,0.8,1.4,0.8,2.2c0,0.5-0.1,1-0.3,1.4
	c-0.2,0.4-0.5,0.9-0.8,1.2c-0.9,0.8-2,1.3-3.2,1.4c0.6,0.3,1.6,1.4,3,3.4c0.7,1.2,1.6,2.2,2.7,3.1c0.7,0.5,1.5,0.8,2.3,0.8
	L138.2,30.2L138.2,30.2z M126.8,22.1c0.5,0,1.1,0,1.7-0.1c0.5,0,1-0.1,1.5-0.3c0.4-0.1,0.8-0.3,1.1-0.6c0.3-0.3,0.5-0.6,0.6-1
	c0.2-0.5,0.2-1,0.2-1.6c0-0.9-0.2-1.9-0.8-2.6c-0.5-0.6-1.7-1-3.4-1c-0.3,0-0.6,0-0.9,0C126.8,15,126.8,22.1,126.8,22.1z M140.9,30
	v-5h0.5c0.6,3.3,2.1,4.9,4.5,4.9c0.4,0,0.9,0,1.3-0.2c0.4-0.2,0.8-0.4,1.1-0.7c0.3-0.3,0.5-0.6,0.6-1c0.2-0.4,0.2-0.7,0.2-1.1
	c0-0.4-0.1-0.7-0.2-1.1c-0.1-0.3-0.3-0.6-0.6-0.9c-0.8-0.7-1.8-1.3-2.8-1.7c-0.9-0.4-1.8-0.9-2.7-1.4c-0.6-0.4-1.1-0.9-1.4-1.6
	c-0.3-0.6-0.5-1.3-0.5-2c0-0.5,0.1-1,0.3-1.5c0.2-0.5,0.5-0.9,0.8-1.3c0.8-0.7,1.8-1.1,2.8-1.1c0.6,0,1.2,0.1,1.8,0.3
	c0.7,0.3,1.3,0.8,1.7,1.3c0.3-0.4,0.5-0.9,0.6-1.4h0.5v4.1H149c-0.2-1.1-0.7-2-1.5-2.8c-0.7-0.7-1.5-1-2.5-1c-0.4,0-0.7,0-1.1,0.2
	c-0.3,0.1-0.6,0.3-0.9,0.6c-0.4,0.5-0.6,1-0.6,1.6c0,0.3,0.1,0.7,0.2,1c0.1,0.3,0.3,0.6,0.6,0.8c0.8,0.7,1.8,1.3,2.8,1.7
	c1,0.4,1.9,0.9,2.8,1.5c0.6,0.4,1.1,0.9,1.4,1.5c0.4,0.7,0.5,1.5,0.5,2.2c0,0.6-0.1,1.2-0.3,1.8c-0.2,0.6-0.5,1.1-1,1.5
	c-0.9,0.9-2.2,1.3-3.4,1.3c-0.8,0-1.6-0.2-2.3-0.5c-0.7-0.3-1.3-0.8-1.8-1.5c-0.3,0.5-0.5,1-0.5,1.5C141.4,30,140.9,30,140.9,30z
	 M182.9,18.4h-0.5l0.1-3.7H197l0.1,3.7h-0.5c-0.1-0.8-0.3-1.5-0.7-2.2c-0.2-0.4-0.5-0.7-1-0.9c-0.6-0.1-1.2-0.2-1.7-0.1h-2.4v11
	c0,0.8,0,1.6,0.1,2.4c0,0.3,0.2,0.6,0.5,0.9c0.4,0.2,0.9,0.3,1.4,0.3h0.7v0.5H186v-0.5h0.8c0.5,0,0.9-0.1,1.3-0.2
	c0.2-0.2,0.4-0.5,0.5-0.8c0.1-0.8,0.1-1.7,0.1-2.5v-11h-2.2c-0.7,0-1.3,0-2,0.1c-0.4,0.2-0.7,0.5-0.9,0.9
	C183.2,16.8,183,17.6,182.9,18.4L182.9,18.4z M200.2,22.3c0-1.1,0.1-2.2,0.5-3.2c0.4-1,1-1.9,1.8-2.6c1.6-1.5,3.7-2.3,5.8-2.2
	c2.2-0.1,4.2,0.7,5.8,2.2c0.8,0.7,1.4,1.7,1.8,2.7c0.4,1,0.6,2.1,0.5,3.2c0,1.1-0.1,2.2-0.5,3.2c-0.4,1-1,1.9-1.7,2.7
	c-1.6,1.5-3.7,2.3-5.9,2.2c-2.2,0.1-4.3-0.7-5.9-2.2c-0.8-0.8-1.4-1.7-1.7-2.7C200.4,24.5,200.2,23.4,200.2,22.3z M202.8,22.4
	c0,2.5,0.5,4.4,1.4,5.6c1,1.3,2.4,1.9,4.3,1.9c0.8,0,1.5-0.1,2.2-0.4c0.7-0.3,1.3-0.8,1.8-1.4c1-1.2,1.5-3.1,1.5-5.6
	c0-2.4-0.5-4.3-1.4-5.5c-0.5-0.6-1.1-1.2-1.9-1.5c-0.7-0.3-1.5-0.5-2.3-0.4c-0.8,0-1.6,0.1-2.3,0.4c-0.7,0.3-1.4,0.8-1.9,1.5
	C203.3,18.1,202.8,19.9,202.8,22.4L202.8,22.4z M225.4,22.8v3.3c0,1.2,0,2,0.1,2.4c0,0.2,0.1,0.3,0.1,0.5s0.2,0.3,0.3,0.4
	c0.4,0.2,0.9,0.3,1.4,0.3h0.5v0.5h-6.9v-0.5h0.4c0.5,0,0.9,0,1.3-0.2c0.3-0.2,0.4-0.5,0.5-0.8c0.1-0.8,0.1-1.7,0.1-2.5v-7.6
	c0-0.8,0-1.6-0.1-2.4c0-0.1-0.1-0.3-0.1-0.4c-0.1-0.1-0.2-0.2-0.3-0.3c-0.5-0.2-1-0.2-1.5-0.2h-0.3v-0.5l1.9-0.1
	c1.5,0,2.7-0.1,3.5-0.1c1.2,0,2.4,0.1,3.6,0.4c0.8,0.2,1.5,0.7,2.1,1.4c0.5,0.7,0.8,1.5,0.8,2.4c0,0.8-0.2,1.6-0.6,2.2
	c-0.4,0.6-0.9,1.2-1.6,1.5c-0.7,0.3-1.9,0.5-3.6,0.5L225.4,22.8L225.4,22.8z M225.4,22.3h1.1c0.7,0,1.4-0.1,2.1-0.3
	c0.6-0.2,1-0.6,1.3-1.1c0.4-0.6,0.6-1.4,0.5-2.1c0-0.5,0-1-0.2-1.5c-0.2-0.5-0.4-0.9-0.7-1.3c-0.6-0.6-1.6-0.9-3-0.9
	c-0.5,0-0.9,0-1.1,0.1L225.4,22.3L225.4,22.3z M17.2,30v-6.7h0.7c0.8,4.4,2.8,6.5,6,6.5c0.6,0,1.2,0,1.8-0.2
	c0.6-0.2,1.1-0.5,1.5-0.9c0.4-0.4,0.7-0.8,0.9-1.3c0.2-0.5,0.3-1,0.3-1.6c0.1-1.1-0.3-2.1-0.9-2.9c-1.1-1-2.4-1.7-3.8-2.2
	c-1.3-0.5-2.5-1.1-3.6-1.8c-0.9-0.5-1.6-1.2-2.1-2c-0.4-0.8-0.6-1.7-0.6-2.6c0-0.7,0.1-1.4,0.4-2c0.2-0.6,0.6-1.2,1.1-1.7
	c0.5-0.5,1.1-0.9,1.7-1.1c0.6-0.3,1.3-0.4,2-0.3c0.8,0,1.6,0.1,2.4,0.4c0.9,0.4,1.7,1,2.3,1.8c0.4-0.5,0.7-1.1,0.8-1.8h0.6v5.4H28
	c-0.3-1.4-0.9-2.7-1.9-3.8c-0.9-0.9-2.1-1.4-3.3-1.4c-0.5,0-1,0-1.5,0.2c-0.5,0.2-0.9,0.5-1.3,0.8c-0.5,0.6-0.8,1.4-0.8,2.3
	c0,0.5,0.1,1,0.3,1.4c0.2,0.5,0.5,0.9,0.8,1.2c1.1,1,2.4,1.7,3.8,2.3c1.3,0.6,2.6,1.2,3.8,1.9c0.8,0.5,1.5,1.1,1.9,1.9
	c0.5,0.8,0.7,1.8,0.7,2.7c0,0.8-0.1,1.6-0.4,2.4c-0.3,0.7-0.7,1.4-1.3,2c-1.2,1.1-2.9,1.7-4.6,1.7c-1,0-2.1-0.2-3-0.7
	c-1-0.5-1.8-1.1-2.5-1.9c-0.4,0.6-0.6,1.3-0.7,2C17.9,30,17.2,30,17.2,30z M165.8,30v-6.7h0.6c0.8,4.4,2.8,6.5,5.9,6.5
	c0.6,0,1.2,0,1.8-0.2c0.6-0.2,1.1-0.5,1.5-0.9c0.4-0.4,0.7-0.8,0.9-1.3c0.2-0.5,0.3-1,0.3-1.6c0.1-1.1-0.3-2.1-0.9-2.9
	c-1.1-1-2.4-1.7-3.8-2.2c-1.2-0.5-2.5-1.1-3.6-1.8c-0.8-0.5-1.6-1.2-2.1-2c-0.4-0.8-0.6-1.7-0.6-2.6c0-0.7,0.1-1.4,0.4-2
	c0.3-0.6,0.6-1.2,1.1-1.7c0.5-0.5,1.1-0.9,1.7-1.1c0.6-0.3,1.3-0.4,2-0.3c0.8,0,1.6,0.1,2.4,0.4c0.9,0.4,1.7,1,2.3,1.8
	c0.4-0.5,0.7-1.2,0.8-1.8h0.6v5.4h-0.6c-0.3-1.4-0.9-2.7-1.9-3.8c-0.9-0.9-2.1-1.4-3.3-1.4c-0.5,0-1,0-1.5,0.2
	c-0.5,0.2-0.9,0.5-1.3,0.8c-0.5,0.6-0.8,1.4-0.8,2.3c0,0.5,0.1,1,0.3,1.4c0.2,0.5,0.5,0.9,0.8,1.2c1.1,1,2.4,1.7,3.7,2.3
	c1.3,0.6,2.6,1.2,3.8,1.9c0.8,0.4,1.5,1.1,2,1.9c0.5,0.8,0.7,1.8,0.7,2.7c0,0.8-0.1,1.6-0.4,2.4c-0.3,0.7-0.7,1.4-1.3,2
	c-1.2,1.1-2.9,1.7-4.6,1.7c-1,0-2.1-0.2-3-0.6c-1-0.5-1.8-1.1-2.5-1.9c-0.4,0.6-0.6,1.3-0.7,2L165.8,30L165.8,30z"/>
<g>
	<path d="M33.6,31.9l0.8,0c0.7,0,1.1-0.1,1.2-0.2c0.2-0.1,0.3-0.3,0.3-0.6c0-0.2,0.1-0.8,0.1-2.4v-7.6c0-1.6-0.1-2.1-0.1-2.3
		c0-0.2-0.1-0.4-0.3-0.5c-0.1,0-0.4-0.1-1.3-0.1h-0.5l-0.2-1.1l7.6-0.1l0.2,1.3h-0.7c-1,0-1.3,0.1-1.3,0.1c-0.1,0.1-0.3,0.2-0.3,0.5
		c0,0.2-0.1,0.7-0.1,2.4V24l7.5-0.1l-0.1-2.7c0-1.1,0-2-0.1-2.4c0-0.2-0.1-0.4-0.3-0.5c-0.1,0-0.3-0.1-1.3-0.1h-0.6l-0.2-1.1
		l7.6-0.1l0.2,1.3H51c-0.9,0-1.2,0.1-1.3,0.1c-0.1,0.1-0.2,0.2-0.3,0.5c-0.1,0.3-0.1,1.1-0.1,2.4v7.6c0,1.2,0,2,0.1,2.4
		c0.1,0.3,0.2,0.5,0.3,0.6c0.1,0.1,0.4,0.2,1.2,0.2h0.5l0.2,1.2h-7.6l-0.2-1.2l0.9,0c0.7,0,1.1-0.1,1.2-0.2c0.2-0.1,0.3-0.3,0.3-0.5
		c0.1-0.4,0.1-1.3,0.1-2.4v-3.5l-7.5,0.1l0.1,3.4c0,1.3,0,2,0.1,2.3c0,0.3,0.1,0.5,0.3,0.6c0.1,0.1,0.4,0.2,1.2,0.2h0.6l0.2,1.1
		l-7.6,0.1L33.6,31.9z"/>
	<path d="M62.5,33.4c-2.5,0-4.7-0.8-6.3-2.3c-1.7-1.6-2.5-3.6-2.5-6.1c0-2.5,0.8-4.5,2.5-6c1.7-1.5,3.7-2.3,6.2-2.3
		c2.5,0,4.6,0.8,6.3,2.2c1.7,1.5,2.6,3.6,2.6,6.1c0,2.5-0.8,4.5-2.4,6.1C67.2,32.7,65.1,33.4,62.5,33.4z M62.5,18
		c-1.8,0-3.1,0.6-4,1.8c-0.9,1.2-1.4,3-1.4,5.3c0,2.4,0.5,4.2,1.4,5.4c0.9,1.2,2.3,1.7,4.2,1.7c1.6,0,2.9-0.6,3.8-1.7
		c1-1.2,1.4-3,1.4-5.4c0-2.3-0.5-4.1-1.4-5.3C65.6,18.6,64.3,18,62.5,18z"/>
	<path d="M73.6,33.2l-0.2-1.3l0.8,0c0.8,0,1.1-0.1,1.2-0.2c0.2-0.1,0.3-0.3,0.4-0.6c0,0,0.1-0.6,0.1-2.4v-7.6c0-1,0-1.9-0.1-2.4
		c-0.1-0.3-0.2-0.4-0.3-0.5c-0.1-0.1-0.4-0.1-1.4-0.1h-0.5L73.4,17l2.8-0.1c1.3,0,2.4-0.1,3.1-0.1c1.7,0,2.9,0.1,3.8,0.4
		c0.9,0.3,1.7,0.7,2.3,1.4c0.6,0.7,0.9,1.6,0.9,2.6c0,0.9-0.2,1.7-0.6,2.4c-0.4,0.7-1,1.2-1.8,1.6c-0.7,0.4-2,0.5-3.8,0.5h-1.5
		l0.1,2.9c0,1.2,0,2,0.1,2.4c0.1,0.3,0.2,0.5,0.3,0.6c0.1,0.1,0.4,0.2,1.2,0.2h0.7l0.2,1.2H73.6z M79.5,24.6c0.9,0,1.5-0.1,2-0.2
		c0.5-0.1,0.8-0.5,1.2-1c0.3-0.5,0.5-1.1,0.5-1.9c0-1.2-0.3-2-0.8-2.6c-0.6-0.5-1.5-0.8-2.8-0.8c-0.4,0-0.7,0-0.9,0l0.1,6.5
		L79.5,24.6z"/>
	<path d="M88.7,33.2l-0.2-1.3l0.8,0c0.8,0,1.1-0.1,1.2-0.2c0.2-0.1,0.3-0.3,0.4-0.6c0-0.3,0.1-1.1,0.1-2.4v-7.6c0-1.2,0-2-0.1-2.3
		c-0.1-0.2-0.2-0.4-0.3-0.5c-0.2-0.1-0.6-0.1-1.4-0.1h-0.5L88.5,17l2.9-0.1c1.3,0,2.3-0.1,3.1-0.1c1.6,0,2.9,0.1,3.8,0.4
		c0.9,0.3,1.7,0.7,2.3,1.4c0.6,0.7,0.9,1.6,0.9,2.6c0,0.9-0.2,1.7-0.6,2.4c-0.4,0.7-1,1.2-1.8,1.6c-0.8,0.4-2,0.5-3.9,0.5h-1.4
		l0.1,2.9c0,1.3,0,2,0.1,2.4c0.1,0.3,0.2,0.5,0.3,0.6c0.1,0.1,0.4,0.2,1.2,0.2h0.7l0.1,1.2H88.7z M94.6,24.6c0.9,0,1.5-0.1,2-0.2
		c0.5-0.1,0.8-0.5,1.2-1c0.3-0.5,0.5-1.1,0.5-1.9c0-1.2-0.3-2-0.8-2.6c-0.6-0.5-1.5-0.8-2.8-0.8c-0.4,0-0.7,0-0.9,0l0.1,6.5
		L94.6,24.6z"/>
	<path d="M103.8,33.2l-0.2-1.3l0.7,0c1,0,1.2-0.2,1.2-0.2c0.2-0.2,0.3-0.4,0.4-0.6c0-0.3,0.1-1,0.1-2.3v-7.6c0-1.3,0-2-0.1-2.3
		c-0.1-0.4-0.2-0.5-0.3-0.5c-0.1-0.1-0.4-0.2-1.3-0.2h-0.2l-0.2-1.2l11.7-0.1l0.5,4.4l-1.1,0.2l-0.1-0.2c-0.4-1.2-0.6-1.9-0.9-2.2
		c-0.3-0.4-0.7-0.6-1.1-0.7c-0.5-0.1-1.2-0.2-2.3-0.2h-1.9l0.1,5.9l1.3-0.1c0.7,0,1.2-0.1,1.4-0.2c0.2-0.1,0.3-0.2,0.4-0.4
		c0.1-0.2,0.2-0.6,0.2-1.4v-0.2l1.1-0.2l0.1,5.9l-1.1,0.2l0-0.3c-0.1-0.9-0.2-1.4-0.3-1.7c-0.1-0.2-0.2-0.3-0.4-0.4
		c-0.3-0.1-0.7-0.1-1.3-0.1h-1.5l0.1,3.3c0,2.4,0.2,3,0.3,3.1c0,0.1,0.3,0.3,1.6,0.3h1.2c0.8,0,1.4-0.1,1.9-0.3
		c0.4-0.2,0.9-0.6,1.3-1.2c0.5-0.6,0.8-1.5,1.1-2.6l0-0.2l1.1-0.1l0,0.1h0l0,0.5l-0.2,4.9H103.8z"/>
	<path d="M119.5,31.9l0.9,0c0.8,0,1.1-0.2,1.1-0.2c0.2-0.1,0.3-0.3,0.4-0.6c0.1-0.4,0.1-1.3,0.1-2.4v-7.6c0-1.1,0-2-0.1-2.3
		c0-0.2-0.1-0.4-0.3-0.5c-0.1,0-0.4-0.1-1.4-0.1h-0.5l-0.1-1.2l2.6-0.1c1.3-0.1,2.5-0.1,3.5-0.1c1.5,0,2.7,0.1,3.7,0.4
		c1,0.3,1.8,0.8,2.4,1.4c0.6,0.7,0.9,1.5,0.9,2.5c0,1.1-0.4,2.1-1.2,2.8c-0.6,0.6-1.5,1.1-2.6,1.3c0.7,0.6,1.5,1.6,2.5,3
		c1.2,1.6,2.1,2.6,2.7,3c0.6,0.5,1.3,0.7,2.2,0.7l0.2,0l0.2,1.2h-4.6l-0.1,0c-0.8-0.6-2-1.9-3.5-4.2c-0.4-0.6-0.9-1.2-1.5-2
		c-0.6-0.8-0.9-1-1-1.1c-0.1-0.1-0.4-0.1-0.7-0.1h-0.4l0.1,3.1c0,1.1,0,2,0.1,2.4c0,0.3,0.2,0.5,0.3,0.6c0.2,0.1,0.6,0.2,1.2,0.2h1
		l0.2,1.1l-8,0.1L119.5,31.9z M125,24.5l0.2,0c0.4,0,0.8,0,1.2,0c0.5,0,1-0.1,1.5-0.2c0.4-0.1,0.7-0.3,0.9-0.5
		c0.3-0.3,0.5-0.5,0.6-0.9c0.2-0.4,0.2-0.9,0.2-1.5c0-1-0.2-1.8-0.7-2.4c-0.5-0.6-1.6-0.9-3.3-0.9c-0.2,0-0.4,0-0.7,0L125,24.5z"/>
	<path d="M144.6,33.4c-1.6,0-3-0.6-4.2-1.7c-0.1,0.3-0.2,0.6-0.3,1l0,0.2l-1.1,0.1l-0.1-5.6l1.1-0.2l0.1,0.2
		c0.7,3.2,2.1,4.6,4.3,4.6c1,0,1.8-0.3,2.3-0.8c0.5-0.6,0.8-1.2,0.8-1.8c0-0.7-0.2-1.2-0.7-1.7c-0.5-0.5-1.4-1-2.8-1.6
		c-1.4-0.6-2.3-1.1-2.8-1.4c-0.7-0.4-1.2-1-1.6-1.7c-0.4-0.7-0.6-1.4-0.6-2.2c0-1.2,0.4-2.2,1.2-3c0.9-0.8,1.9-1.2,3.2-1.2
		c0.7,0,1.4,0.1,2,0.4c0.5,0.2,1.1,0.6,1.6,1.1c0.1-0.3,0.2-0.6,0.3-0.9l0-0.2l1.1-0.2l0.1,4.7l-1,0.1l-0.1-0.2
		c-0.3-1.2-0.8-2.1-1.5-2.7c-0.7-0.6-1.4-0.9-2.3-0.9c-0.8,0-1.4,0.2-1.8,0.6c-0.4,0.4-0.6,0.9-0.6,1.4c0,0.6,0.2,1.1,0.7,1.6
		c0.5,0.5,1.4,1,2.8,1.6c1.3,0.6,2.3,1.1,2.9,1.5c0.7,0.4,1.2,0.9,1.6,1.6c0.4,0.7,0.6,1.5,0.6,2.4c0,1.4-0.5,2.6-1.4,3.5
		C147.4,33,146.1,33.4,144.6,33.4z"/>
	<path d="M186.6,33.2l-0.2-1.2l1.2,0c0.7,0,1-0.1,1.2-0.2c0.1-0.1,0.3-0.3,0.3-0.5c0.1-0.3,0.1-1.1,0.1-2.4V18.2l-1.9,0.1
		c-0.9,0-1.6,0-1.9,0.1c-0.3,0.1-0.5,0.3-0.8,0.7c-0.3,0.4-0.5,1.2-0.6,2.1l0,0.2l-1.1,0.1l0-4.4l15.6-0.1l0.2,4.3l-1,0.2l-0.1-0.2
		c-0.3-1.2-0.5-1.8-0.8-2.1c-0.3-0.4-0.5-0.6-0.8-0.7c-0.3-0.1-0.8-0.1-1.7-0.1h-2.2l0.1,10.5c0,1.1,0,2,0.1,2.3
		c0,0.3,0.2,0.5,0.3,0.6c0.1,0.1,0.4,0.2,1.2,0.2h1l0.2,1.2H186.6z"/>
	<path d="M209.3,33.4c-2.5,0-4.7-0.8-6.3-2.3c-1.6-1.5-2.5-3.6-2.5-6.1c0-2.5,0.8-4.5,2.5-6c1.7-1.5,3.7-2.3,6.2-2.3
		c2.5,0,4.6,0.8,6.3,2.2c1.7,1.5,2.6,3.5,2.6,6.1c0,2.5-0.8,4.5-2.4,6.1C214,32.7,211.9,33.4,209.3,33.4z M209.2,18
		c-1.7,0-3.1,0.6-4,1.7c-0.9,1.2-1.4,2.9-1.4,5.3c0,2.4,0.5,4.2,1.4,5.4c0.9,1.2,2.3,1.7,4.2,1.7c1.6,0,2.9-0.6,3.9-1.7
		c1-1.2,1.4-3,1.4-5.4c0-2.3-0.5-4.1-1.4-5.3C212.4,18.6,211,18,209.2,18z"/>
	<path d="M220,33.2l-0.2-1.2l0.8,0c0.5,0,0.9-0.1,1.2-0.2c0.2-0.1,0.3-0.3,0.3-0.5c0.1-0.3,0.1-1.1,0.1-2.4v-7.6c0-1.3,0-2-0.1-2.3
		c-0.1-0.3-0.2-0.4-0.3-0.5c-0.1,0-0.4-0.1-1.4-0.1H220l-0.1-1.3l2.8-0.1c1.3,0,2.3-0.1,3.1-0.1c1.7,0,2.9,0.1,3.8,0.4
		c0.9,0.3,1.7,0.7,2.3,1.4c0.6,0.7,0.9,1.6,0.9,2.6c0,0.9-0.2,1.7-0.6,2.4c-0.4,0.7-1,1.3-1.8,1.6c-0.7,0.4-2,0.5-3.9,0.5h-1.4
		l0.1,2.9c0,1.7,0.1,2.3,0.1,2.4c0,0.3,0.1,0.4,0.3,0.6c0.1,0.1,0.4,0.2,1.2,0.2h0.7l0.2,1.2H220z M225.9,24.6c0.9,0,1.5-0.1,2-0.2
		c0.5-0.2,0.9-0.5,1.2-1c0.3-0.5,0.5-1.2,0.5-1.9c0-1.2-0.3-2-0.8-2.6c-0.6-0.5-1.5-0.8-2.8-0.8c-0.4,0-0.7,0-0.9,0l0.1,6.5
		L225.9,24.6z"/>
	<path d="M24.6,33.5c-2.2,0-4.1-0.8-5.6-2.4c-0.2,0.4-0.3,0.9-0.5,1.5l0,0.2L17.3,33l-0.1-7.3l1.2-0.1l0,0.2
		c0.9,4.2,2.8,6.3,5.9,6.3c1.4,0,2.5-0.4,3.2-1.1c0.8-0.8,1.1-1.6,1.1-2.6c0-1.1-0.3-2.1-0.9-2.7c-0.6-0.6-1.9-1.4-3.8-2.2
		c-1.5-0.6-2.9-1.2-3.8-1.8c-0.9-0.5-1.8-1.2-2.3-2.1c-0.6-1.1-0.7-2.2-0.7-2.7c0-1.6,0.6-2.9,1.6-3.9c1.1-1,2.5-1.6,4.1-1.6
		c0.9,0,1.8,0.2,2.6,0.5c0.7,0.3,1.5,0.8,2.3,1.6c0.2-0.5,0.4-0.9,0.4-1.3l0-0.2l1.2-0.1l0.1,6L28.5,18l-0.1-0.2
		c-0.5-1.7-1.1-2.9-2-3.7c-0.9-0.8-2-1.3-3.2-1.3c-1.1,0-2.1,0.3-2.6,0.9c-0.5,0.6-0.8,1.3-0.8,2c0,0.9,0.4,1.8,1,2.4
		c0.7,0.7,2,1.4,3.8,2.2c1.8,0.8,3.1,1.4,3.9,1.9c1,0.6,1.7,1.2,2.1,2c0.5,0.9,0.7,1.7,0.7,2.9c0,1.8-0.6,3.4-1.9,4.5
		C28.3,33,26.7,33.5,24.6,33.5z"/>
	<path d="M174.1,33.5c-2.2,0-4.1-0.8-5.6-2.4c-0.2,0.4-0.3,0.9-0.4,1.5l0,0.2l-1.2,0.1l-0.1-7.2l1.2-0.1l0,0.2
		c0.9,4.2,2.8,6.3,5.9,6.3c1.4,0,2.5-0.4,3.2-1.1c0.8-0.8,1.1-1.6,1.1-2.6c0-1.1-0.3-2.2-0.9-2.7c-0.6-0.6-1.9-1.4-3.8-2.2
		c-1.5-0.6-2.9-1.2-3.8-1.8c-0.9-0.6-1.8-1.2-2.3-2.1c-0.6-1-0.7-2-0.7-2.7c0-1.6,0.5-2.9,1.6-3.9c1.1-1,2.5-1.6,4.1-1.6
		c0.9,0,1.8,0.1,2.6,0.4c0.8,0.3,1.5,0.8,2.3,1.6c0.3-0.5,0.4-0.9,0.4-1.3l0-0.2l1.2-0.1l0.1,6L178,18l-0.1-0.2
		c-0.5-1.7-1.1-2.9-2-3.7c-0.9-0.8-2-1.3-3.2-1.3c-1.1,0-2.1,0.3-2.6,0.9c-0.5,0.6-0.8,1.3-0.8,2c0,0.9,0.4,1.8,1,2.4
		c0.7,0.7,2,1.5,3.8,2.2c2.1,1,3.2,1.5,3.9,1.9c1,0.6,1.7,1.2,2.1,2c0.5,0.9,0.7,1.7,0.7,2.9c0,1.8-0.6,3.4-1.9,4.6
		C177.9,33,176.2,33.5,174.1,33.5z"/>
</g>
</svg>
